<svg xmlns="http://www.w3.org/2000/svg" viewBox="0 0 770 700" width="770" height="700"><rect width="100%" height="100%" fill="#FAF6EF"/><g transform="translate(23,14)" fill="none" stroke="#16120E" stroke-width="1.75" stroke-linecap="butt" stroke-linejoin="miter"><path d="M6.5 9.5a5.5 5.5 0 0 1 11 0c0 5 2 6.5 2 6.5h-15s2-1.5 2-6.5z" fill="none"/><path d="M10 19a2.2 2.2 0 0 0 4 0" fill="none"/></g><text x="35.0" y="58" text-anchor="middle" font-family="monospace" font-size="6.5" fill="#8C877E">alert</text><g transform="translate(93,14)" fill="none" stroke="#16120E" stroke-width="1.75" stroke-linecap="butt" stroke-linejoin="miter"><path d="M8 4.5v15M4.5 8 8 4.5 11.5 8"/><path d="M16 19.5v-15M12.5 16 16 19.5 19.5 16"/></g><text x="105.0" y="58" text-anchor="middle" font-family="monospace" font-size="6.5" fill="#8C877E">arrow-updown</text><g transform="translate(163,14)" fill="none" stroke="#16120E" stroke-width="1.75" stroke-linecap="butt" stroke-linejoin="miter"><path d="M4 12h14.5"/><path d="M13 6.5 18.5 12 13 17.5"/></g><text x="175.0" y="58" text-anchor="middle" font-family="monospace" font-size="6.5" fill="#8C877E">arrow</text><g transform="translate(233,14)" fill="none" stroke="#16120E" stroke-width="1.75" stroke-linecap="butt" stroke-linejoin="miter"><path d="M4.5 7.5 9 12l-4.5 4.5" fill="none"/><path d="M11 16.5h8" fill="none"/><path d="m18.2 3.6 1 2.3 2.3 1-2.3 1-1 2.3-1-2.3-2.3-1 2.3-1z" fill="#16120E" stroke="none"/></g><text x="245.0" y="58" text-anchor="middle" font-family="monospace" font-size="6.5" fill="#8C877E">ask</text><g transform="translate(303,14)" fill="none" stroke="#16120E" stroke-width="1.75" stroke-linecap="butt" stroke-linejoin="miter"><path d="M4 4.5h5.5a2.5 2.5 0 0 1 2.5 2.5v13a2 2 0 0 0-2-2H4z"/><path d="M20 4.5h-5.5A2.5 2.5 0 0 0 12 7v13a2 2 0 0 1 2-2h6z"/></g><text x="315.0" y="58" text-anchor="middle" font-family="monospace" font-size="6.5" fill="#8C877E">book</text><g transform="translate(373,14)" fill="none" stroke="#16120E" stroke-width="1.75" stroke-linecap="butt" stroke-linejoin="miter"><rect x="4" y="8" width="16" height="12.5" rx="2"/><circle cx="9.2" cy="13.8" r="1.4" fill="#16120E" stroke="none"/><circle cx="14.8" cy="13.8" r="1.4" fill="#16120E" stroke="none"/><path d="M12 4.6V8"/><circle cx="12" cy="3.2" r="1.4" fill="#16120E" stroke="none"/><path d="M4 13.5H2.2M21.8 13.5H20"/></g><text x="385.0" y="58" text-anchor="middle" font-family="monospace" font-size="6.5" fill="#8C877E">bot</text><g transform="translate(443,14)" fill="none" stroke="#16120E" stroke-width="1.75" stroke-linecap="butt" stroke-linejoin="miter"><path d="M9.5 3.5h5v3l2 3.5v10.5h-9V10l2-3.5z" fill="none"/><path d="M7.5 12.5h9M7.5 16h9" fill="none"/></g><text x="455.0" y="58" text-anchor="middle" font-family="monospace" font-size="6.5" fill="#8C877E">bottle</text><g transform="translate(513,14)" fill="none" stroke="#16120E" stroke-width="1.75" stroke-linecap="butt" stroke-linejoin="miter"><rect x="3" y="7.5" width="18" height="12.5" rx="1.5"/><path d="M8.5 7.5V5.5a1 1 0 0 1 1-1h5a1 1 0 0 1 1 1v2"/><path d="M3 12.5h18"/></g><text x="525.0" y="58" text-anchor="middle" font-family="monospace" font-size="6.5" fill="#8C877E">briefcase</text><g transform="translate(583,14)" fill="none" stroke="#16120E" stroke-width="1.75" stroke-linecap="butt" stroke-linejoin="miter"><rect x="3.5" y="5" width="17" height="15.5" rx="1.5"/><path d="M3.5 10h17"/><path d="M8 3v4M16 3v4"/></g><text x="595.0" y="58" text-anchor="middle" font-family="monospace" font-size="6.5" fill="#8C877E">calendar</text><g transform="translate(653,14)" fill="none" stroke="#16120E" stroke-width="1.75" stroke-linecap="butt" stroke-linejoin="miter"><path d="M3.5 8h3.4l1.6-2.5h7l1.6 2.5h3.4v11.5h-17z"/><circle cx="12" cy="13.2" r="3.6"/></g><text x="665.0" y="58" text-anchor="middle" font-family="monospace" font-size="6.5" fill="#8C877E">camera</text><g transform="translate(723,14)" fill="none" stroke="#16120E" stroke-width="1.75" stroke-linecap="butt" stroke-linejoin="miter"><rect x="2.5" y="5.5" width="19" height="13" rx="1.5" fill="none"/><path d="M2.5 10h19" fill="none"/><rect x="6" y="13" width="4.5" height="2.5" rx=".5" fill="#16120E" stroke="none"/></g><text x="735.0" y="58" text-anchor="middle" font-family="monospace" font-size="6.5" fill="#8C877E">card</text><g transform="translate(23,84)" fill="none" stroke="#16120E" stroke-width="1.75" stroke-linecap="butt" stroke-linejoin="miter"><path d="M4.5 12.5 9.5 17.5 19.5 6.5"/></g><text x="35.0" y="128" text-anchor="middle" font-family="monospace" font-size="6.5" fill="#8C877E">check</text><g transform="translate(93,84)" fill="none" stroke="#16120E" stroke-width="1.75" stroke-linecap="butt" stroke-linejoin="miter"><path d="M6 9.5 12 15.5 18 9.5"/></g><text x="105.0" y="128" text-anchor="middle" font-family="monospace" font-size="6.5" fill="#8C877E">chevron</text><g transform="translate(163,84)" fill="none" stroke="#16120E" stroke-width="1.75" stroke-linecap="butt" stroke-linejoin="miter"><path d="M7.5 10 12 5.5 16.5 10"/><path d="M7.5 14 12 18.5 16.5 14"/></g><text x="175.0" y="128" text-anchor="middle" font-family="monospace" font-size="6.5" fill="#8C877E">chevrons-updow</text><g transform="translate(233,84)" fill="none" stroke="#16120E" stroke-width="1.75" stroke-linecap="butt" stroke-linejoin="miter"><circle cx="12" cy="12" r="8.5"/><circle cx="12" cy="12" r="2.6" fill="#16120E" stroke="none"/></g><text x="245.0" y="128" text-anchor="middle" font-family="monospace" font-size="6.5" fill="#8C877E">circle-dot</text><g transform="translate(303,84)" fill="none" stroke="#16120E" stroke-width="1.75" stroke-linecap="butt" stroke-linejoin="miter"><rect x="5" y="4.5" width="14" height="16" rx="1.5"/><rect x="9" y="2.5" width="6" height="4" rx="1"/><path d="M8.5 11.5h7M8.5 15.5h7"/></g><text x="315.0" y="128" text-anchor="middle" font-family="monospace" font-size="6.5" fill="#8C877E">clipboard-list</text><g transform="translate(373,84)" fill="none" stroke="#16120E" stroke-width="1.75" stroke-linecap="butt" stroke-linejoin="miter"><rect x="5" y="4.5" width="14" height="16" rx="1.5"/><rect x="9" y="2.5" width="6" height="4" rx="1"/></g><text x="385.0" y="128" text-anchor="middle" font-family="monospace" font-size="6.5" fill="#8C877E">clipboard</text><g transform="translate(443,84)" fill="none" stroke="#16120E" stroke-width="1.75" stroke-linecap="butt" stroke-linejoin="miter"><circle cx="12" cy="12" r="8.5"/><path d="M12 7v5.2l3.6 2.1"/></g><text x="455.0" y="128" text-anchor="middle" font-family="monospace" font-size="6.5" fill="#8C877E">clock</text><g transform="translate(513,84)" fill="none" stroke="#16120E" stroke-width="1.75" stroke-linecap="butt" stroke-linejoin="miter"><path d="M8.5 7.5 3.5 12l5 4.5"/><path d="M15.5 7.5 20.5 12l-5 4.5"/></g><text x="525.0" y="128" text-anchor="middle" font-family="monospace" font-size="6.5" fill="#8C877E">code</text><g transform="translate(583,84)" fill="none" stroke="#16120E" stroke-width="1.75" stroke-linecap="butt" stroke-linejoin="miter"><path d="M9 3.5v4M15 3.5v4" fill="none"/><path d="M6.5 7.5h11v4a5.5 5.5 0 0 1-11 0z" fill="none"/><path d="M12 17v3.5" fill="none"/></g><text x="595.0" y="128" text-anchor="middle" font-family="monospace" font-size="6.5" fill="#8C877E">connect</text><g transform="translate(653,84)" fill="none" stroke="#16120E" stroke-width="1.75" stroke-linecap="butt" stroke-linejoin="miter"><rect x="8" y="3.5" width="12.5" height="12.5" rx="1.5"/><path d="M15.5 19.5H5a1.5 1.5 0 0 1-1.5-1.5V8"/></g><text x="665.0" y="128" text-anchor="middle" font-family="monospace" font-size="6.5" fill="#8C877E">copy</text><g transform="translate(723,84)" fill="none" stroke="#16120E" stroke-width="1.75" stroke-linecap="butt" stroke-linejoin="miter"><path d="M9 6.5V4.5a1 1 0 0 1 1-1h9.5a1 1 0 0 1 1 1V14a1 1 0 0 1-1 1h-2" fill="none"/><rect x="3.5" y="6.5" width="14" height="14" rx="1.5" fill="none"/><path d="M3.5 17.5 8 13l3 3 2.5-2.5 4 4" fill="none"/><circle cx="8.2" cy="10.6" r="1.2" fill="#16120E" stroke="none"/></g><text x="735.0" y="128" text-anchor="middle" font-family="monospace" font-size="6.5" fill="#8C877E">creative</text><g transform="translate(23,154)" fill="none" stroke="#16120E" stroke-width="1.75" stroke-linecap="butt" stroke-linejoin="miter"><path d="M6.5 4.5v15M17.5 4.5v15"/><path d="M6.5 4.5 17.5 19.5"/><path d="M3.8 9.6h16.4M3.8 14.4h16.4"/></g><text x="35.0" y="198" text-anchor="middle" font-family="monospace" font-size="6.5" fill="#8C877E">currency</text><g transform="translate(93,154)" fill="none" stroke="#16120E" stroke-width="1.75" stroke-linecap="butt" stroke-linejoin="miter"><ellipse cx="12" cy="6" rx="7.5" ry="3"/><path d="M4.5 6v12c0 1.7 3.4 3 7.5 3s7.5-1.3 7.5-3V6"/><path d="M4.5 12c0 1.7 3.4 3 7.5 3s7.5-1.3 7.5-3"/></g><text x="105.0" y="198" text-anchor="middle" font-family="monospace" font-size="6.5" fill="#8C877E">database</text><g transform="translate(163,154)" fill="none" stroke="#16120E" stroke-width="1.75" stroke-linecap="butt" stroke-linejoin="miter"><path d="m4 20 1-4.5L15.4 5.1a2.2 2.2 0 0 1 3.1 3.1L8 18.7 4 20z"/><path d="m13.4 7.1 3.5 3.5"/></g><text x="175.0" y="198" text-anchor="middle" font-family="monospace" font-size="6.5" fill="#8C877E">edit</text><g transform="translate(233,154)" fill="none" stroke="#16120E" stroke-width="1.75" stroke-linecap="butt" stroke-linejoin="miter"><path d="M4 14.5V19a1 1 0 0 0 1 1h14a1 1 0 0 0 1-1v-4.5" fill="none"/><path d="M12 3.5v10M8 9.5l4 4 4-4" fill="none"/></g><text x="245.0" y="198" text-anchor="middle" font-family="monospace" font-size="6.5" fill="#8C877E">export</text><g transform="translate(303,154)" fill="none" stroke="#16120E" stroke-width="1.75" stroke-linecap="butt" stroke-linejoin="miter"><path d="M13.5 3.5h7v7"/><path d="M20.5 3.5 11 13"/><path d="M17 13.5v6a1 1 0 0 1-1 1H4.5a1 1 0 0 1-1-1V8a1 1 0 0 1 1-1h6"/></g><text x="315.0" y="198" text-anchor="middle" font-family="monospace" font-size="6.5" fill="#8C877E">external-link</text><g transform="translate(373,154)" fill="none" stroke="#16120E" stroke-width="1.75" stroke-linecap="butt" stroke-linejoin="miter"><path d="M2.2 12S6 5.5 12 5.5 21.8 12 21.8 12 18 18.5 12 18.5 2.2 12 2.2 12z"/><circle cx="12" cy="12" r="3"/></g><text x="385.0" y="198" text-anchor="middle" font-family="monospace" font-size="6.5" fill="#8C877E">eye</text><g transform="translate(443,154)" fill="none" stroke="#16120E" stroke-width="1.75" stroke-linecap="butt" stroke-linejoin="miter"><path d="M12 21s-7-6.6-7-11a7 7 0 1 1 14 0c0 4.4-7 11-7 11z" fill="none"/><circle cx="12" cy="10" r="2.6" fill="none"/></g><text x="455.0" y="198" text-anchor="middle" font-family="monospace" font-size="6.5" fill="#8C877E">field</text><g transform="translate(513,154)" fill="none" stroke="#16120E" stroke-width="1.75" stroke-linecap="butt" stroke-linejoin="miter"><path d="M5.5 3.5h7l4.5 4.5v3.5"/><path d="M12.5 3.5V8h4.5"/><path d="M5.5 3.5v17h4.5"/><circle cx="15.5" cy="16" r="3.4"/><path d="m17.9 18.4 2.6 2.6"/></g><text x="525.0" y="198" text-anchor="middle" font-family="monospace" font-size="6.5" fill="#8C877E">file-search</text><g transform="translate(583,154)" fill="none" stroke="#16120E" stroke-width="1.75" stroke-linecap="butt" stroke-linejoin="miter"><path d="M6 3.5h7l5 5v12H6z"/><path d="M13 3.5V8.5h5"/></g><text x="595.0" y="198" text-anchor="middle" font-family="monospace" font-size="6.5" fill="#8C877E">file</text><g transform="translate(653,154)" fill="none" stroke="#16120E" stroke-width="1.75" stroke-linecap="butt" stroke-linejoin="miter"><rect x="3" y="4" width="18" height="16" rx="1.5"/><path d="M3 9h18M3 15h18"/><path d="M7.5 4v16M16.5 4v16"/></g><text x="665.0" y="198" text-anchor="middle" font-family="monospace" font-size="6.5" fill="#8C877E">film</text><g transform="translate(723,154)" fill="none" stroke="#16120E" stroke-width="1.75" stroke-linecap="butt" stroke-linejoin="miter"><path d="M3.5 5h17l-6.5 7.5v6l-4 2v-8z" fill="none"/></g><text x="735.0" y="198" text-anchor="middle" font-family="monospace" font-size="6.5" fill="#8C877E">filter</text><g transform="translate(23,224)" fill="none" stroke="#16120E" stroke-width="1.75" stroke-linecap="butt" stroke-linejoin="miter"><path d="M5.5 20.5V4"/><path d="M5.5 4.5h12l-2.4 4 2.4 4h-12"/></g><text x="35.0" y="268" text-anchor="middle" font-family="monospace" font-size="6.5" fill="#8C877E">flag</text><g transform="translate(93,224)" fill="none" stroke="#16120E" stroke-width="1.75" stroke-linecap="butt" stroke-linejoin="miter"><path d="M9 3.5h6"/><path d="M10 3.5v6L4.6 19a1.5 1.5 0 0 0 1.3 2.2h12.2A1.5 1.5 0 0 0 19.4 19L14 9.5v-6"/><path d="M7.4 15h9.2"/></g><text x="105.0" y="268" text-anchor="middle" font-family="monospace" font-size="6.5" fill="#8C877E">flask</text><g transform="translate(163,224)" fill="none" stroke="#16120E" stroke-width="1.75" stroke-linecap="butt" stroke-linejoin="miter"><path d="M3 4.5h18l-6.5 7.5v6.5l-5 2.5v-9z" fill="none"/></g><text x="175.0" y="268" text-anchor="middle" font-family="monospace" font-size="6.5" fill="#8C877E">funnel</text><g transform="translate(233,224)" fill="none" stroke="#16120E" stroke-width="1.75" stroke-linecap="butt" stroke-linejoin="miter"><path d="M4 17.5A8 8 0 0 1 20 17.5" fill="none"/><path d="M12 17.5 17 11.5" fill="none"/><circle cx="12" cy="17.5" r="1.5" fill="#16120E" stroke="none"/><path d="M4 17.5h1.6M20 17.5h-1.6M12 9.5v1.6" fill="none"/></g><text x="245.0" y="268" text-anchor="middle" font-family="monospace" font-size="6.5" fill="#8C877E">gauge</text><g transform="translate(303,224)" fill="none" stroke="#16120E" stroke-width="1.75" stroke-linecap="butt" stroke-linejoin="miter"><rect x="3" y="8.5" width="18" height="4.5" rx="1"/><path d="M4.5 13v7.5h15V13"/><path d="M12 8.5v12"/><path d="M12 8.5S9.2 8.5 8.2 7.5a2.2 2.2 0 0 1 3-3.2c1.1.9.8 4.2.8 4.2z"/><path d="M12 8.5s2.8 0 3.8-1a2.2 2.2 0 0 0-3-3.2c-1.1.9-.8 4.2-.8 4.2z"/></g><text x="315.0" y="268" text-anchor="middle" font-family="monospace" font-size="6.5" fill="#8C877E">gift</text><g transform="translate(373,224)" fill="none" stroke="#16120E" stroke-width="1.75" stroke-linecap="butt" stroke-linejoin="miter"><circle cx="7" cy="5.5" r="2.5"/><circle cx="7" cy="18.5" r="2.5"/><circle cx="17" cy="7.5" r="2.5"/><path d="M7 8v8"/><path d="M17 10v1.5a4 4 0 0 1-4 4H9.5"/></g><text x="385.0" y="268" text-anchor="middle" font-family="monospace" font-size="6.5" fill="#8C877E">git-branch</text><g transform="translate(443,224)" fill="none" stroke="#16120E" stroke-width="1.75" stroke-linecap="butt" stroke-linejoin="miter"><circle cx="7" cy="5.5" r="2.5"/><circle cx="17" cy="5.5" r="2.5"/><circle cx="12" cy="18.5" r="2.5"/><path d="M7 8v1.8a3 3 0 0 0 3 3h4a3 3 0 0 0 3-3V8"/><path d="M12 12.8V16"/></g><text x="455.0" y="268" text-anchor="middle" font-family="monospace" font-size="6.5" fill="#8C877E">git-fork</text><g transform="translate(513,224)" fill="none" stroke="#16120E" stroke-width="1.75" stroke-linecap="butt" stroke-linejoin="miter"><circle cx="12" cy="12" r="8.5"/><path d="M3.5 12h17"/><path d="M12 3.5a13 13 0 0 1 0 17 13 13 0 0 1 0-17z"/></g><text x="525.0" y="268" text-anchor="middle" font-family="monospace" font-size="6.5" fill="#8C877E">globe</text><g transform="translate(583,224)" fill="none" stroke="#16120E" stroke-width="1.75" stroke-linecap="butt" stroke-linejoin="miter"><path d="M12 20.5S3.5 15.6 3.5 9.6a4.6 4.6 0 0 1 8.5-2.2 4.6 4.6 0 0 1 8.5 2.2c0 6-8.5 10.9-8.5 10.9z"/></g><text x="595.0" y="268" text-anchor="middle" font-family="monospace" font-size="6.5" fill="#8C877E">heart</text><g transform="translate(653,224)" fill="none" stroke="#16120E" stroke-width="1.75" stroke-linecap="butt" stroke-linejoin="miter"><circle cx="12" cy="12" r="8.5"/><path d="M9.6 9.6a2.5 2.5 0 1 1 2.6 2.6v1.4"/><circle cx="12.2" cy="16.5" r="1.05" fill="#16120E" stroke="none"/></g><text x="665.0" y="268" text-anchor="middle" font-family="monospace" font-size="6.5" fill="#8C877E">help</text><g transform="translate(723,224)" fill="none" stroke="#16120E" stroke-width="1.75" stroke-linecap="butt" stroke-linejoin="miter"><path d="M4.2 9.5A8.5 8.5 0 1 1 3.5 13"/><path d="M3.5 5.5v4h4"/><path d="M12 8v4.4l3 1.8"/></g><text x="735.0" y="268" text-anchor="middle" font-family="monospace" font-size="6.5" fill="#8C877E">history</text><g transform="translate(23,294)" fill="none" stroke="#16120E" stroke-width="1.75" stroke-linecap="butt" stroke-linejoin="miter"><rect x="3.5" y="4.5" width="17" height="15" rx="1.5"/><path d="m3.5 16.5 5-5 3.5 3.5 3-3 5.5 5.5"/><circle cx="8.6" cy="9.2" r="1.5" fill="#16120E" stroke="none"/></g><text x="35.0" y="338" text-anchor="middle" font-family="monospace" font-size="6.5" fill="#8C877E">image</text><g transform="translate(93,294)" fill="none" stroke="#16120E" stroke-width="1.75" stroke-linecap="butt" stroke-linejoin="miter"><circle cx="12" cy="12" r="8.5"/><path d="M12 11.2v5.6"/><circle cx="12" cy="7.9" r="1.05" fill="#16120E" stroke="none"/></g><text x="105.0" y="338" text-anchor="middle" font-family="monospace" font-size="6.5" fill="#8C877E">info</text><g transform="translate(163,294)" fill="none" stroke="#16120E" stroke-width="1.75" stroke-linecap="butt" stroke-linejoin="miter"><circle cx="8" cy="15" r="4"/><path d="M10.9 12.1 20.5 2.5"/><path d="m17.5 5.5 2.5 2.5M15.2 7.8l2.5 2.5"/></g><text x="175.0" y="338" text-anchor="middle" font-family="monospace" font-size="6.5" fill="#8C877E">key</text><g transform="translate(233,294)" fill="none" stroke="#16120E" stroke-width="1.75" stroke-linecap="butt" stroke-linejoin="miter"><path d="m12 3 9 5-9 5-9-5z"/><path d="m3.5 12.6 8.5 4.7 8.5-4.7"/></g><text x="245.0" y="338" text-anchor="middle" font-family="monospace" font-size="6.5" fill="#8C877E">layers</text><g transform="translate(303,294)" fill="none" stroke="#16120E" stroke-width="1.75" stroke-linecap="butt" stroke-linejoin="miter"><rect x="3" y="3" width="7.5" height="7.5" rx="1"/><rect x="13.5" y="3" width="7.5" height="7.5" rx="1"/><rect x="3" y="13.5" width="7.5" height="7.5" rx="1"/><rect x="13.5" y="13.5" width="7.5" height="7.5" rx="1"/></g><text x="315.0" y="338" text-anchor="middle" font-family="monospace" font-size="6.5" fill="#8C877E">layout-grid</text><g transform="translate(373,294)" fill="none" stroke="#16120E" stroke-width="1.75" stroke-linecap="butt" stroke-linejoin="miter"><path d="M9 18.2h6M9.8 21h4.4"/><path d="M12 3a6 6 0 0 1 3.5 10.9c-.6.5-1 1.3-1 2.1h-5c0-.8-.4-1.6-1-2.1A6 6 0 0 1 12 3z"/></g><text x="385.0" y="338" text-anchor="middle" font-family="monospace" font-size="6.5" fill="#8C877E">lightbulb</text><g transform="translate(443,294)" fill="none" stroke="#16120E" stroke-width="1.75" stroke-linecap="butt" stroke-linejoin="miter"><path d="M9.8 14.2a4 4 0 0 0 5.7 0l3.3-3.3a4 4 0 0 0-5.7-5.7L11.5 6.8"/><path d="M14.2 9.8a4 4 0 0 0-5.7 0L5.2 13.1a4 4 0 0 0 5.7 5.7l1.6-1.6"/></g><text x="455.0" y="338" text-anchor="middle" font-family="monospace" font-size="6.5" fill="#8C877E">link</text><g transform="translate(513,294)" fill="none" stroke="#16120E" stroke-width="1.75" stroke-linecap="butt" stroke-linejoin="miter"><rect x="4.5" y="10.5" width="15" height="9.5" rx="1.5"/><path d="M8 10.5V7.5a4 4 0 0 1 8 0v3"/></g><text x="525.0" y="338" text-anchor="middle" font-family="monospace" font-size="6.5" fill="#8C877E">lock</text><g transform="translate(583,294)" fill="none" stroke="#16120E" stroke-width="1.75" stroke-linecap="butt" stroke-linejoin="miter"><path d="M9 3.5H5a1.5 1.5 0 0 0-1.5 1.5v14A1.5 1.5 0 0 0 5 20.5h4"/><path d="M15.5 8 19.5 12l-4 4"/><path d="M19.5 12H9"/></g><text x="595.0" y="338" text-anchor="middle" font-family="monospace" font-size="6.5" fill="#8C877E">logout</text><g transform="translate(653,294)" fill="none" stroke="#16120E" stroke-width="1.75" stroke-linecap="butt" stroke-linejoin="miter"><rect x="2.5" y="5" width="19" height="14" rx="1.5"/><path d="m2.5 6.5 9.5 6.5 9.5-6.5"/></g><text x="665.0" y="338" text-anchor="middle" font-family="monospace" font-size="6.5" fill="#8C877E">mail</text><g transform="translate(723,294)" fill="none" stroke="#16120E" stroke-width="1.75" stroke-linecap="butt" stroke-linejoin="miter"><path d="M9 4.5 3.5 6.5v13L9 17.5l6 2 5.5-2v-13l-5.5 2z"/><path d="M9 4.5v13M15 6.5v13"/></g><text x="735.0" y="338" text-anchor="middle" font-family="monospace" font-size="6.5" fill="#8C877E">map</text><g transform="translate(23,364)" fill="none" stroke="#16120E" stroke-width="1.75" stroke-linecap="butt" stroke-linejoin="miter"><path d="M2.5 4.5h19l-1.2 4H3.7z" fill="none"/><path d="M3.7 8.5a2.3 2.3 0 0 0 4.2 0 2.3 2.3 0 0 0 4.2 0 2.3 2.3 0 0 0 4.2 0 2.3 2.3 0 0 0 4 0" fill="none"/><path d="M5.5 11.5V20M18.5 11.5V20M3.5 20h17" fill="none"/></g><text x="35.0" y="408" text-anchor="middle" font-family="monospace" font-size="6.5" fill="#8C877E">market</text><g transform="translate(93,364)" fill="none" stroke="#16120E" stroke-width="1.75" stroke-linecap="butt" stroke-linejoin="miter"><rect x="3.5" y="5" width="17" height="10" rx="2" fill="none"/><path d="M8 15v4l4-4" fill="none"/><path d="M8 12.4v-2M11.75 12.4V8.6M15.5 12.4V7.4" fill="none"/></g><text x="105.0" y="408" text-anchor="middle" font-family="monospace" font-size="6.5" fill="#8C877E">mentions</text><g transform="translate(163,364)" fill="none" stroke="#16120E" stroke-width="1.75" stroke-linecap="butt" stroke-linejoin="miter"><path d="M3.5 7h17M3.5 12h17M3.5 17h17"/></g><text x="175.0" y="408" text-anchor="middle" font-family="monospace" font-size="6.5" fill="#8C877E">menu</text><g transform="translate(233,364)" fill="none" stroke="#16120E" stroke-width="1.75" stroke-linecap="butt" stroke-linejoin="miter"><rect x="3.5" y="4.5" width="17" height="12" rx="2"/><path d="M8 16.5v4l4-4"/><path d="M10.4 9a2 2 0 1 1 2 2v.9"/></g><text x="245.0" y="408" text-anchor="middle" font-family="monospace" font-size="6.5" fill="#8C877E">message-questi</text><g transform="translate(303,364)" fill="none" stroke="#16120E" stroke-width="1.75" stroke-linecap="butt" stroke-linejoin="miter"><rect x="3.5" y="4.5" width="17" height="12" rx="2"/><path d="M8 16.5v4l4-4"/><path d="M8.5 8.4v3.2h3.2M13.5 8.4v3.2h3.2"/></g><text x="315.0" y="408" text-anchor="middle" font-family="monospace" font-size="6.5" fill="#8C877E">message-quote</text><g transform="translate(373,364)" fill="none" stroke="#16120E" stroke-width="1.75" stroke-linecap="butt" stroke-linejoin="miter"><path d="M4.5 12h15"/></g><text x="385.0" y="408" text-anchor="middle" font-family="monospace" font-size="6.5" fill="#8C877E">minus</text><g transform="translate(443,364)" fill="none" stroke="#16120E" stroke-width="1.75" stroke-linecap="butt" stroke-linejoin="miter"><path d="M20.2 14.6A8.6 8.6 0 0 1 9.4 3.8 8.5 8.5 0 1 0 20.2 14.6z"/></g><text x="455.0" y="408" text-anchor="middle" font-family="monospace" font-size="6.5" fill="#8C877E">moon</text><g transform="translate(513,364)" fill="none" stroke="#16120E" stroke-width="1.75" stroke-linecap="butt" stroke-linejoin="miter"><circle cx="6" cy="12" r="1.5" fill="#16120E" stroke="none"/><circle cx="12" cy="12" r="1.5" fill="#16120E" stroke="none"/><circle cx="18" cy="12" r="1.5" fill="#16120E" stroke="none"/></g><text x="525.0" y="408" text-anchor="middle" font-family="monospace" font-size="6.5" fill="#8C877E">more</text><g transform="translate(583,364)" fill="none" stroke="#16120E" stroke-width="1.75" stroke-linecap="butt" stroke-linejoin="miter"><path d="m5.5 3.5 13.5 7.5-6.2 1.6-1.6 6.2z"/></g><text x="595.0" y="408" text-anchor="middle" font-family="monospace" font-size="6.5" fill="#8C877E">mouse-pointer</text><g transform="translate(653,364)" fill="none" stroke="#16120E" stroke-width="1.75" stroke-linecap="butt" stroke-linejoin="miter"><circle cx="6.5" cy="17.5" r="3"/><circle cx="17.5" cy="15" r="3"/><path d="M9.5 17.5V6l11-2.2V15"/></g><text x="665.0" y="408" text-anchor="middle" font-family="monospace" font-size="6.5" fill="#8C877E">music</text><g transform="translate(723,364)" fill="none" stroke="#16120E" stroke-width="1.75" stroke-linecap="butt" stroke-linejoin="miter"><rect x="2.5" y="4" width="19" height="9.5" rx="1" fill="none"/><path d="M8 13.5V20M16 13.5V20M4.5 20h15" fill="none"/><path d="M6 8.5h5M6 10.8h9" fill="none"/></g><text x="735.0" y="408" text-anchor="middle" font-family="monospace" font-size="6.5" fill="#8C877E">ooh</text><g transform="translate(23,434)" fill="none" stroke="#16120E" stroke-width="1.75" stroke-linecap="butt" stroke-linejoin="miter"><rect x="2.5" y="4.5" width="19" height="15" rx="1.5"/><path d="M9 4.5v15"/></g><text x="35.0" y="478" text-anchor="middle" font-family="monospace" font-size="6.5" fill="#8C877E">panel</text><g transform="translate(93,434)" fill="none" stroke="#16120E" stroke-width="1.75" stroke-linecap="butt" stroke-linejoin="miter"><rect x="7.5" y="5" width="3.4" height="14"/><rect x="13.1" y="5" width="3.4" height="14"/></g><text x="105.0" y="478" text-anchor="middle" font-family="monospace" font-size="6.5" fill="#8C877E">pause</text><g transform="translate(163,434)" fill="none" stroke="#16120E" stroke-width="1.75" stroke-linecap="butt" stroke-linejoin="miter"><path d="M6.5 3.5h3.2l1.5 4-2 1.5a12.2 12.2 0 0 0 5.8 5.8l1.5-2 4 1.5v3.2a1.5 1.5 0 0 1-1.6 1.5C10.2 18.6 5.4 13.8 5 5.1a1.5 1.5 0 0 1 1.5-1.6z"/></g><text x="175.0" y="478" text-anchor="middle" font-family="monospace" font-size="6.5" fill="#8C877E">phone</text><g transform="translate(233,434)" fill="none" stroke="#16120E" stroke-width="1.75" stroke-linecap="butt" stroke-linejoin="miter"><path d="M8 5.5 18.5 12 8 18.5z"/></g><text x="245.0" y="478" text-anchor="middle" font-family="monospace" font-size="6.5" fill="#8C877E">play</text><g transform="translate(303,434)" fill="none" stroke="#16120E" stroke-width="1.75" stroke-linecap="butt" stroke-linejoin="miter"><path d="M12 4.5v15M4.5 12h15"/></g><text x="315.0" y="478" text-anchor="middle" font-family="monospace" font-size="6.5" fill="#8C877E">plus</text><g transform="translate(373,434)" fill="none" stroke="#16120E" stroke-width="1.75" stroke-linecap="butt" stroke-linejoin="miter"><path d="M7 9V4h10v5"/><rect x="3.5" y="9" width="17" height="7" rx="1.5"/><path d="M7 15.5h10v5H7z"/></g><text x="385.0" y="478" text-anchor="middle" font-family="monospace" font-size="6.5" fill="#8C877E">printer</text><g transform="translate(443,434)" fill="none" stroke="#16120E" stroke-width="1.75" stroke-linecap="butt" stroke-linejoin="miter"><rect x="3.5" y="3.5" width="6.5" height="6.5"/><rect x="14" y="3.5" width="6.5" height="6.5"/><rect x="3.5" y="14" width="6.5" height="6.5"/><path d="M14 14h3.2v3.2H14zM20.5 14v3.2M17.3 20.5h3.2"/></g><text x="455.0" y="478" text-anchor="middle" font-family="monospace" font-size="6.5" fill="#8C877E">qr</text><g transform="translate(513,434)" fill="none" stroke="#16120E" stroke-width="1.75" stroke-linecap="butt" stroke-linejoin="miter"><path d="M19.8 12a8 8 0 1 1-2.4-5.7"/><path d="M19.5 3.5V9h-5.5"/></g><text x="525.0" y="478" text-anchor="middle" font-family="monospace" font-size="6.5" fill="#8C877E">refresh</text><g transform="translate(583,434)" fill="none" stroke="#16120E" stroke-width="1.75" stroke-linecap="butt" stroke-linejoin="miter"><rect x="2.5" y="4.5" width="19" height="15" rx="1.5" fill="none"/><path d="M2.5 9h19" fill="none"/><circle cx="5.7" cy="6.8" r=".85" fill="#16120E" stroke="none"/><circle cx="8.4" cy="6.8" r=".85" fill="#16120E" stroke="none"/></g><text x="595.0" y="478" text-anchor="middle" font-family="monospace" font-size="6.5" fill="#8C877E">saas</text><g transform="translate(653,434)" fill="none" stroke="#16120E" stroke-width="1.75" stroke-linecap="butt" stroke-linejoin="miter"><circle cx="10.5" cy="10.5" r="6.5"/><path d="m15.4 15.4 5.1 5.1"/><path d="M8.4 8.4 12.6 12.6M12.6 8.4 8.4 12.6"/></g><text x="665.0" y="478" text-anchor="middle" font-family="monospace" font-size="6.5" fill="#8C877E">search-x</text><g transform="translate(723,434)" fill="none" stroke="#16120E" stroke-width="1.75" stroke-linecap="butt" stroke-linejoin="miter"><circle cx="10.5" cy="10.5" r="6.5" fill="none"/><path d="m15.4 15.4 5.1 5.1" fill="none"/></g><text x="735.0" y="478" text-anchor="middle" font-family="monospace" font-size="6.5" fill="#8C877E">search</text><g transform="translate(23,504)" fill="none" stroke="#16120E" stroke-width="1.75" stroke-linecap="butt" stroke-linejoin="miter"><path d="M20.5 3.5 3.5 10.5l7 3 3 7z"/><path d="m10.5 13.5 10-10"/></g><text x="35.0" y="548" text-anchor="middle" font-family="monospace" font-size="6.5" fill="#8C877E">send</text><g transform="translate(93,504)" fill="none" stroke="#16120E" stroke-width="1.75" stroke-linecap="butt" stroke-linejoin="miter"><path d="M12.00 2.80 L14.76 5.35 L18.51 5.49 L18.65 9.24 L21.20 12.00 L18.65 14.76 L18.51 18.51 L14.76 18.65 L12.00 21.20 L9.24 18.65 L5.49 18.51 L5.35 14.76 L2.80 12.00 L5.35 9.24 L5.49 5.49 L9.24 5.35 Z"/><circle cx="12" cy="12" r="3.3"/></g><text x="105.0" y="548" text-anchor="middle" font-family="monospace" font-size="6.5" fill="#8C877E">settings</text><g transform="translate(163,504)" fill="none" stroke="#16120E" stroke-width="1.75" stroke-linecap="butt" stroke-linejoin="miter"><circle cx="6" cy="12" r="2.6"/><circle cx="18" cy="6" r="2.6"/><circle cx="18" cy="18" r="2.6"/><path d="m8.4 10.7 7.2-3.4M8.4 13.3l7.2 3.4"/></g><text x="175.0" y="548" text-anchor="middle" font-family="monospace" font-size="6.5" fill="#8C877E">share-nodes</text><g transform="translate(233,504)" fill="none" stroke="#16120E" stroke-width="1.75" stroke-linecap="butt" stroke-linejoin="miter"><rect x="2.5" y="9" width="19" height="6" rx="1" fill="none"/><rect x="2.5" y="9" width="11.5" height="6" fill="#16120E" stroke="none"/><path d="M14 9v6" fill="none"/></g><text x="245.0" y="548" text-anchor="middle" font-family="monospace" font-size="6.5" fill="#8C877E">share</text><g transform="translate(303,504)" fill="none" stroke="#16120E" stroke-width="1.75" stroke-linecap="butt" stroke-linejoin="miter"><path d="M2.5 16.5h19" fill="none"/><rect x="5" y="8" width="5" height="8.5" fill="none"/><rect x="12" y="10.5" width="6" height="6" fill="none"/><path d="M5 20h14" fill="none"/></g><text x="315.0" y="548" text-anchor="middle" font-family="monospace" font-size="6.5" fill="#8C877E">shelf</text><g transform="translate(373,504)" fill="none" stroke="#16120E" stroke-width="1.75" stroke-linecap="butt" stroke-linejoin="miter"><path d="M12 3.4 19.5 6.3v6.1c0 4.6-4.1 7.1-7.5 8.2-3.4-1.1-7.5-3.6-7.5-8.2V6.3z"/><path d="M12 8.4v4.2"/><circle cx="12" cy="15.6" r="1.05" fill="#16120E" stroke="none"/></g><text x="385.0" y="548" text-anchor="middle" font-family="monospace" font-size="6.5" fill="#8C877E">shield-alert</text><g transform="translate(443,504)" fill="none" stroke="#16120E" stroke-width="1.75" stroke-linecap="butt" stroke-linejoin="miter"><path d="M12 3.4 19.5 6.3v6.1c0 4.6-4.1 7.1-7.5 8.2-3.4-1.1-7.5-3.6-7.5-8.2V6.3z"/><path d="m8.6 12.1 2.5 2.5 4.3-4.6"/></g><text x="455.0" y="548" text-anchor="middle" font-family="monospace" font-size="6.5" fill="#8C877E">shield-check</text><g transform="translate(513,504)" fill="none" stroke="#16120E" stroke-width="1.75" stroke-linecap="butt" stroke-linejoin="miter"><path d="M12 3.4 19.5 6.3v6.1c0 4.6-4.1 7.1-7.5 8.2-3.4-1.1-7.5-3.6-7.5-8.2V6.3z"/><path d="m9.6 10 4.8 4.8M14.4 10 9.6 14.8"/></g><text x="525.0" y="548" text-anchor="middle" font-family="monospace" font-size="6.5" fill="#8C877E">shield-x</text><g transform="translate(583,504)" fill="none" stroke="#16120E" stroke-width="1.75" stroke-linecap="butt" stroke-linejoin="miter"><path d="M12 3.4 19.5 6.3v6.1c0 4.6-4.1 7.1-7.5 8.2-3.4-1.1-7.5-3.6-7.5-8.2V6.3z"/></g><text x="595.0" y="548" text-anchor="middle" font-family="monospace" font-size="6.5" fill="#8C877E">shield</text><g transform="translate(653,504)" fill="none" stroke="#16120E" stroke-width="1.75" stroke-linecap="butt" stroke-linejoin="miter"><rect x="6.5" y="2.5" width="11" height="19" rx="2"/><path d="M10.2 18.8h3.6"/></g><text x="665.0" y="548" text-anchor="middle" font-family="monospace" font-size="6.5" fill="#8C877E">smartphone</text><g transform="translate(723,504)" fill="none" stroke="#16120E" stroke-width="1.75" stroke-linecap="butt" stroke-linejoin="miter"><path d="m12 3.4 2.7 5.7 6.2.9-4.5 4.4 1.1 6.2-5.5-2.9-5.5 2.9 1.1-6.2-4.5-4.4 6.2-.9z"/></g><text x="735.0" y="548" text-anchor="middle" font-family="monospace" font-size="6.5" fill="#8C877E">star</text><g transform="translate(23,574)" fill="none" stroke="#16120E" stroke-width="1.75" stroke-linecap="butt" stroke-linejoin="miter"><circle cx="12" cy="12" r="4.2"/><path d="M12 2.5v2.6M12 18.9v2.6M2.5 12h2.6M18.9 12h2.6M5.6 5.6l1.9 1.9M16.5 16.5l1.9 1.9M18.4 5.6l-1.9 1.9M7.5 16.5l-1.9 1.9"/></g><text x="35.0" y="618" text-anchor="middle" font-family="monospace" font-size="6.5" fill="#8C877E">sun</text><g transform="translate(93,574)" fill="none" stroke="#16120E" stroke-width="1.75" stroke-linecap="butt" stroke-linejoin="miter"><rect x="3.5" y="3.5" width="17" height="17" rx="2" fill="none"/><path d="M9.4 8.6a2.6 2.6 0 1 1 2.6 2.6v1" fill="none"/><circle cx="12" cy="13.6" r=".85" fill="#16120E" stroke="none"/><path d="M7 16.8h10" fill="none"/><circle cx="14.6" cy="16.8" r="1.7" fill="#16120E" stroke="none"/></g><text x="105.0" y="618" text-anchor="middle" font-family="monospace" font-size="6.5" fill="#8C877E">survey</text><g transform="translate(163,574)" fill="none" stroke="#16120E" stroke-width="1.75" stroke-linecap="butt" stroke-linejoin="miter"><path d="M20.5 12.5 12 21 3 12V3.5h8.5z"/><circle cx="8" cy="8" r="1.6" fill="#16120E" stroke="none"/></g><text x="175.0" y="618" text-anchor="middle" font-family="monospace" font-size="6.5" fill="#8C877E">tag</text><g transform="translate(233,574)" fill="none" stroke="#16120E" stroke-width="1.75" stroke-linecap="butt" stroke-linejoin="miter"><path d="M7 13.5v-10H4.2a1.5 1.5 0 0 0-1.5 1.5V12a1.5 1.5 0 0 0 1.5 1.5z"/><path d="m7 13.5 4.4 7.9a2.5 2.5 0 0 0 2.4-2.6V15h5.1a2 2 0 0 0 2-2.4l-1.4-7a2 2 0 0 0-2-1.6H7"/></g><text x="245.0" y="618" text-anchor="middle" font-family="monospace" font-size="6.5" fill="#8C877E">thumbs-down</text><g transform="translate(303,574)" fill="none" stroke="#16120E" stroke-width="1.75" stroke-linecap="butt" stroke-linejoin="miter"><path d="M7 10.5v10H4.2a1.5 1.5 0 0 1-1.5-1.5V12a1.5 1.5 0 0 1 1.5-1.5z"/><path d="M7 10.5 11.4 2.6a2.5 2.5 0 0 1 2.4 2.6V9h5.1a2 2 0 0 1 2 2.4l-1.4 7a2 2 0 0 1-2 1.6H7"/></g><text x="315.0" y="618" text-anchor="middle" font-family="monospace" font-size="6.5" fill="#8C877E">thumbs-up</text><g transform="translate(373,574)" fill="none" stroke="#16120E" stroke-width="1.75" stroke-linecap="butt" stroke-linejoin="miter"><rect x="2.5" y="7" width="19" height="10" rx="5"/><circle cx="8" cy="12" r="3.2" fill="#16120E" stroke="none"/></g><text x="385.0" y="618" text-anchor="middle" font-family="monospace" font-size="6.5" fill="#8C877E">toggle</text><g transform="translate(443,574)" fill="none" stroke="#16120E" stroke-width="1.75" stroke-linecap="butt" stroke-linejoin="miter"><path d="M4 6.5h16"/><path d="M9 6.5V4h6v2.5"/><path d="m6.2 6.5 1 13h9.6l1-13"/><path d="M10 10.5v5M14 10.5v5"/></g><text x="455.0" y="618" text-anchor="middle" font-family="monospace" font-size="6.5" fill="#8C877E">trash</text><g transform="translate(513,574)" fill="none" stroke="#16120E" stroke-width="1.75" stroke-linecap="butt" stroke-linejoin="miter"><path d="M3 7.5 8.5 13l4-4L21 17.5"/><path d="M16 17.5h5v-5"/></g><text x="525.0" y="618" text-anchor="middle" font-family="monospace" font-size="6.5" fill="#8C877E">trend-down</text><g transform="translate(583,574)" fill="none" stroke="#16120E" stroke-width="1.75" stroke-linecap="butt" stroke-linejoin="miter"><path d="M3 16.5 8.5 11l4 4L21 6.5" fill="none"/><path d="M16 6.5h5v5" fill="none"/></g><text x="595.0" y="618" text-anchor="middle" font-family="monospace" font-size="6.5" fill="#8C877E">trend</text><g transform="translate(653,574)" fill="none" stroke="#16120E" stroke-width="1.75" stroke-linecap="butt" stroke-linejoin="miter"><path d="M12 3.8 21.2 19.6H2.8z"/><path d="M12 10v4.2"/><circle cx="12" cy="17.1" r="1.05" fill="#16120E" stroke="none"/></g><text x="665.0" y="618" text-anchor="middle" font-family="monospace" font-size="6.5" fill="#8C877E">triangle-alert</text><g transform="translate(723,574)" fill="none" stroke="#16120E" stroke-width="1.75" stroke-linecap="butt" stroke-linejoin="miter"><rect x="2.5" y="7" width="11" height="8" fill="none"/><path d="M13.5 10h4l3 3.5V15h-7z" fill="none"/><circle cx="7" cy="17.5" r="2" fill="none"/><circle cx="17" cy="17.5" r="2" fill="none"/><path d="M9 17.5h6M2.5 15h2.5M19 17.5h2" fill="none"/></g><text x="735.0" y="618" text-anchor="middle" font-family="monospace" font-size="6.5" fill="#8C877E">truck</text><g transform="translate(23,644)" fill="none" stroke="#16120E" stroke-width="1.75" stroke-linecap="butt" stroke-linejoin="miter"><path d="M10 14.5 7.6 17a4 4 0 0 1-5.6-5.6l2.4-2.4"/><path d="M14 9.5 16.4 7a4 4 0 0 1 5.6 5.6l-2.4 2.4"/><path d="m2.5 2.5 19 19"/></g><text x="35.0" y="688" text-anchor="middle" font-family="monospace" font-size="6.5" fill="#8C877E">unplug</text><g transform="translate(93,644)" fill="none" stroke="#16120E" stroke-width="1.75" stroke-linecap="butt" stroke-linejoin="miter"><circle cx="9" cy="8" r="3.6"/><path d="M3 20.5a6 6 0 0 1 12 0"/><path d="M16.2 5.2a3.6 3.6 0 0 1 0 5.6"/><path d="M17.2 14.7a6 6 0 0 1 3.8 5.8"/></g><text x="105.0" y="688" text-anchor="middle" font-family="monospace" font-size="6.5" fill="#8C877E">users</text><g transform="translate(163,644)" fill="none" stroke="#16120E" stroke-width="1.75" stroke-linecap="butt" stroke-linejoin="miter"><path d="M6.5 3.5V8a2.5 2.5 0 0 0 5 0V3.5M9 8v12.5" fill="none"/><path d="M17.5 20.5v-8.5h2.5c0-5.5-1-8.5-2.5-8.5s-2.5 3-2.5 8.5h2.5" fill="none"/></g><text x="175.0" y="688" text-anchor="middle" font-family="monospace" font-size="6.5" fill="#8C877E">venue</text><g transform="translate(233,644)" fill="none" stroke="#16120E" stroke-width="1.75" stroke-linecap="butt" stroke-linejoin="miter"><path d="M5 19 16 8"/><path d="m17.6 2.8 1.1 2.6 2.6 1.1-2.6 1.1-1.1 2.6-1.1-2.6L13.9 6.5l2.6-1.1z" fill="#16120E" stroke="none"/><path d="M6.5 3.5v3M5 5h3M18 16.5v2.5M16.8 17.8h2.5"/></g><text x="245.0" y="688" text-anchor="middle" font-family="monospace" font-size="6.5" fill="#8C877E">wand</text><g transform="translate(303,644)" fill="none" stroke="#16120E" stroke-width="1.75" stroke-linecap="butt" stroke-linejoin="miter"><path d="m2.5 3 19 18"/><path d="M4.8 11.3a12.4 12.4 0 0 1 3.9-2.4"/><path d="M8.4 15a7 7 0 0 1 2.6-1.5"/><circle cx="12" cy="18.6" r="1.2" fill="#16120E" stroke="none"/><path d="M13.4 8.8a12.4 12.4 0 0 1 5.8 2.5"/></g><text x="315.0" y="688" text-anchor="middle" font-family="monospace" font-size="6.5" fill="#8C877E">wifi-off</text><g transform="translate(373,644)" fill="none" stroke="#16120E" stroke-width="1.75" stroke-linecap="butt" stroke-linejoin="miter"><path d="M15.7 3.6a5.2 5.2 0 0 0-6.4 6.8L3.5 16.2 7.8 20.5l5.8-5.8a5.2 5.2 0 0 0 6.8-6.4l-3.3 3.3-3.7-3.7z"/></g><text x="385.0" y="688" text-anchor="middle" font-family="monospace" font-size="6.5" fill="#8C877E">wrench</text><g transform="translate(443,644)" fill="none" stroke="#16120E" stroke-width="1.75" stroke-linecap="butt" stroke-linejoin="miter"><circle cx="12" cy="12" r="8.5"/><path d="M9 9 15 15M15 9 9 15"/></g><text x="455.0" y="688" text-anchor="middle" font-family="monospace" font-size="6.5" fill="#8C877E">x-circle</text><g transform="translate(513,644)" fill="none" stroke="#16120E" stroke-width="1.75" stroke-linecap="butt" stroke-linejoin="miter"><path d="M5.5 5.5 18.5 18.5M18.5 5.5 5.5 18.5"/></g><text x="525.0" y="688" text-anchor="middle" font-family="monospace" font-size="6.5" fill="#8C877E">x</text></svg>